<?xml version="1.0" standalone="no"?>
<!DOCTYPE svg PUBLIC "-//W3C//DTD SVG 20010904//EN"
 "http://www.w3.org/TR/2001/REC-SVG-20010904/DTD/svg10.dtd">
<svg version="1.0" xmlns="http://www.w3.org/2000/svg"
 width="150.000000pt" height="150.000000pt" viewBox="0 0 150.000000 150.000000"
 preserveAspectRatio="xMidYMid meet">
<metadata>
Created by potrace 1.14, written by Peter Selinger 2001-2017
</metadata>
<g transform="translate(0.000000,150.000000) scale(0.100000,-0.100000)"
fill="#000000" stroke="none">
<path d="M117 1465 c-50 -19 -94 -66 -107 -116 -7 -26 -10 -241 -8 -642 3
-637 1 -611 48 -669 14 -17 48 -18 700 -18 664 0 686 1 702 19 44 51 43 38 45
678 2 401 -1 622 -8 641 -12 35 -54 84 -89 103 -37 21 -1227 24 -1283 4z"/>
</g>
</svg>
